<?xml version="1.0" standalone="no"?>
<svg version="1.0" xmlns="http://www.w3.org/2000/svg" width="752.000000pt" height="752.000000pt"
   viewBox="0 0 752.000000 752.000000" preserveAspectRatio="xMidYMid meet">
   <g transform="translate(0.000000,752.000000) scale(0.100000,-0.100000)" fill="#000000" stroke="none">
      <path d="M4470 5619 c-61 -17 -90 -31 -90 -44 0 -10 12 -49 35 -112 3 -9 15
-7 47 7 52 24 96 25 126 4 37 -25 29 -64 -28 -132 -53 -64 -80 -123 -80 -178
l0 -34 80 0 c57 0 80 4 80 13 0 39 27 94 71 144 28 32 57 69 64 83 52 104 1
221 -109 249 -53 13 -147 13 -196 0z" />
      <path d="M2652 5305 c-44 -12 -107 -39 -121 -51 -3 -3 48 -165 55 -173 2 -2
25 6 52 17 105 45 204 33 226 -29 14 -41 2 -69 -70 -154 -81 -97 -103 -144
-111 -235 l-6 -70 117 0 116 0 0 43 c1 60 28 113 103 197 85 94 110 145 110
230 0 102 -38 162 -133 211 -39 20 -62 24 -165 26 -82 2 -137 -2 -173 -12z" />
      <path d="M4524 5079 c-66 -19 -93 -96 -55 -156 35 -55 134 -62 173 -11 28 36
24 113 -7 143 -13 14 -31 25 -39 25 -8 0 -20 2 -28 4 -7 2 -27 0 -44 -5z" />
      <path d="M3628 4904 c-177 -42 -334 -190 -389 -363 -29 -91 -29 -241 0 -332
27 -85 83 -171 156 -237 249 -227 641 -174 827 112 57 89 80 171 80 291 0 120
-23 203 -80 291 -130 199 -366 294 -594 238z" />
      <path d="M2742 4540 c-119 -29 -139 -204 -30 -270 62 -38 158 -18 201 42 26
34 27 120 4 165 -28 53 -105 81 -175 63z" />
      <path d="M2270 4277 c-82 -26 -148 -141 -134 -233 14 -95 19 -99 446 -384
l397 -265 1 -673 c0 -646 1 -674 19 -711 26 -50 81 -97 128 -110 52 -15 1214
-15 1266 0 47 13 102 60 128 110 18 37 19 65 19 711 l0 673 356 235 c196 129
376 250 400 268 139 105 107 326 -55 381 -46 15 -115 14 -155 -3 -18 -7 -202
-127 -409 -265 l-377 -251 -540 0 -540 0 -377 251 c-207 138 -391 258 -409
265 -39 16 -114 17 -164 1z" />
   </g>
</svg>