<?xml version="1.0" standalone="no"?>
<svg version="1.1" xmlns="http://www.w3.org/2000/svg" width="1107.1220703125"
   height="641"><svg x="192.8798828125" y="52.5" width="82.791015625" height="102">
      <path
         d="M8,26L28.8955078125,26Q38.8955078125,26,38.8955078125,36L38.8955078125,66Q38.8955078125,76,48.8955078125,76L69.791015625,76L48.8955078125,76Q38.8955078125,76,38.8955078125,66L38.8955078125,36Q38.8955078125,26,28.8955078125,26L8,26L8,26M18,22L18,30M59.791015625,72L59.791015625,80"
         fill="none" stroke="#619BCC" stroke-width="2"></path><text x="11" y="23"
         style="font-family: &quot;Open Sans&quot;, sans-serif; font-size: 14px; font-weight: normal; fill: black;">1</text><text
         x="58.7861328125" y="73"
         style="font-family: &quot;Open Sans&quot;, sans-serif; font-size: 14px; font-weight: normal; fill: black;">1</text>
   </svg><svg x="468.62939453125" y="23.5" width="142" height="139.5">
      <path
         d="M8,113.5L58.5,113.5Q68.5,113.5,68.5,103.5L68.5,36Q68.5,26,78.5,26L129,26L78.5,26Q68.5,26,68.5,36L68.5,103.5Q68.5,113.5,58.5,113.5L8,113.5L8,113.5M18,109.5L18,117.5M119,22L119,30"
         fill="none" stroke="#619BCC" stroke-width="2"></path><text x="11" y="110.5"
         style="font-family: &quot;Open Sans&quot;, sans-serif; font-size: 14px; font-weight: normal; fill: black;">1</text><text
         x="117.9951171875" y="23"
         style="font-family: &quot;Open Sans&quot;, sans-serif; font-size: 14px; font-weight: normal; fill: black;">1</text>
   </svg><svg x="468.62939453125" y="94" width="390.58984375" height="107">
      <path
         d="M8,26L182.794921875,26Q192.794921875,26,192.794921875,36L192.794921875,71Q192.794921875,81,202.794921875,81L377.58984375,81L202.794921875,81Q192.794921875,81,192.794921875,71L192.794921875,36Q192.794921875,26,182.794921875,26L8,26L8,26M8,22L18,26L8,30M367.58984375,77L367.58984375,85"
         fill="none" stroke="#619BCC" stroke-width="2"></path><text x="11" y="23"
         style="font-family: &quot;Open Sans&quot;, sans-serif; font-size: 14px; font-weight: normal; fill: black;">*</text><text
         x="366.5849609375" y="78"
         style="font-family: &quot;Open Sans&quot;, sans-serif; font-size: 14px; font-weight: normal; fill: black;">1</text>
   </svg><svg x="213.2392578125" y="182" width="645.97998046875" height="133.5">
      <path
         d="M8,107.5L310.489990234375,107.5Q320.489990234375,107.5,320.489990234375,97.5L320.489990234375,36Q320.489990234375,26,330.489990234375,26L632.97998046875,26L330.489990234375,26Q320.489990234375,26,320.489990234375,36L320.489990234375,97.5Q320.489990234375,107.5,310.489990234375,107.5L8,107.5L8,107.5M8,103.5L18,107.5L8,111.5M622.97998046875,22L622.97998046875,30"
         fill="none" stroke="#619BCC" stroke-width="2"></path><text x="11" y="104.5"
         style="font-family: &quot;Open Sans&quot;, sans-serif; font-size: 14px; font-weight: normal; fill: black;">*</text><text
         x="621.97509765625" y="23"
         style="font-family: &quot;Open Sans&quot;, sans-serif; font-size: 14px; font-weight: normal; fill: black;">1</text>
   </svg><svg x="213.2392578125" y="182" width="645.97998046875" height="166.5">
      <path
         d="M8,140.5L310.489990234375,140.5Q320.489990234375,140.5,320.489990234375,130.5L320.489990234375,36Q320.489990234375,26,330.489990234375,26L632.97998046875,26L330.489990234375,26Q320.489990234375,26,320.489990234375,36L320.489990234375,130.5Q320.489990234375,140.5,310.489990234375,140.5L8,140.5L8,140.5M8,136.5L18,140.5L8,144.5M622.97998046875,22L622.97998046875,30"
         fill="none" stroke="#619BCC" stroke-width="2"></path><text x="11" y="137.5"
         style="font-family: &quot;Open Sans&quot;, sans-serif; font-size: 14px; font-weight: normal; fill: black;">*</text><text
         x="621.97509765625" y="23"
         style="font-family: &quot;Open Sans&quot;, sans-serif; font-size: 14px; font-weight: normal; fill: black;">1</text>
   </svg><svg x="736.32373046875" y="182" width="122.8955078125" height="152.5">
      <path
         d="M8,126.5L48.94775390625,126.5Q58.94775390625,126.5,58.94775390625,116.5L58.94775390625,36Q58.94775390625,26,68.94775390625,26L109.8955078125,26L68.94775390625,26Q58.94775390625,26,58.94775390625,36L58.94775390625,116.5Q58.94775390625,126.5,48.94775390625,126.5L8,126.5L8,126.5M8,122.5L18,126.5L8,130.5M99.8955078125,22L99.8955078125,30"
         fill="none" stroke="#619BCC" stroke-width="2"></path><text x="11" y="123.5"
         style="font-family: &quot;Open Sans&quot;, sans-serif; font-size: 14px; font-weight: normal; fill: black;">*</text><text
         x="98.890625" y="23"
         style="font-family: &quot;Open Sans&quot;, sans-serif; font-size: 14px; font-weight: normal; fill: black;">1</text>
   </svg><svg x="779.205078125" y="165" width="80.01416015625" height="353.5">
      <path
         d="M8,327.5L27.507080078125,327.5Q37.507080078125,327.5,37.507080078125,317.5L37.507080078125,36Q37.507080078125,26,47.507080078125,26L67.01416015625,26L47.507080078125,26Q37.507080078125,26,37.507080078125,36L37.507080078125,317.5Q37.507080078125,327.5,27.507080078125,327.5L8,327.5L8,327.5M18,323.5L18,331.5M67.01416015625,22L57.01416015625,26L67.01416015625,30"
         fill="none" stroke="#619BCC" stroke-width="2"></path><text x="11" y="324.5"
         style="font-family: &quot;Open Sans&quot;, sans-serif; font-size: 14px; font-weight: normal; fill: black;">1</text><text
         x="56.30322265625" y="23"
         style="font-family: &quot;Open Sans&quot;, sans-serif; font-size: 14px; font-weight: normal; fill: black;">*</text>
   </svg><svg x="779.205078125" y="165" width="80.01416015625" height="386.5">
      <path
         d="M8,360.5L27.507080078125,360.5Q37.507080078125,360.5,37.507080078125,350.5L37.507080078125,36Q37.507080078125,26,47.507080078125,26L67.01416015625,26L47.507080078125,26Q37.507080078125,26,37.507080078125,36L37.507080078125,350.5Q37.507080078125,360.5,27.507080078125,360.5L8,360.5L8,360.5M18,356.5L18,364.5M67.01416015625,22L57.01416015625,26L67.01416015625,30"
         fill="none" stroke="#619BCC" stroke-width="2"></path><text x="11" y="357.5"
         style="font-family: &quot;Open Sans&quot;, sans-serif; font-size: 14px; font-weight: normal; fill: black;">1</text><text
         x="56.30322265625" y="23"
         style="font-family: &quot;Open Sans&quot;, sans-serif; font-size: 14px; font-weight: normal; fill: black;">*</text>
   </svg><svg x="779.205078125" y="433.5" width="123.01416015625" height="52">
      <path
         d="M8,26L59.007080078125,26Q59.007080078125,26,59.007080078125,26L59.007080078125,26Q59.007080078125,26,59.007080078125,26L110.01416015625,26L59.007080078125,26Q59.007080078125,26,59.007080078125,26L59.007080078125,26Q59.007080078125,26,59.007080078125,26L8,26L8,26M8,22L18,26L8,30M100.01416015625,22L100.01416015625,30"
         fill="none" stroke="#619BCC" stroke-width="2"></path><text x="11" y="23"
         style="font-family: &quot;Open Sans&quot;, sans-serif; font-size: 14px; font-weight: normal; fill: black;">*</text><text
         x="99.00927734375" y="23"
         style="font-family: &quot;Open Sans&quot;, sans-serif; font-size: 14px; font-weight: normal; fill: black;">1</text>
   </svg><svg x="1066.904296875" y="173.5" width="40.2177734375" height="345">
      <path
         d="M8,26L27.2177734375,26Q37.2177734375,26,37.2177734375,36L37.2177734375,309Q37.2177734375,319,27.2177734375,319L17.2177734375,319L27.2177734375,319Q37.2177734375,319,37.2177734375,309L37.2177734375,36Q37.2177734375,26,27.2177734375,26L8,26L8,26ZM8,22L18,26L8,30M27.2177734375,315L27.2177734375,323"
         fill="none" stroke="#619BCC" stroke-width="2"></path><text x="11" y="23"
         style="font-family: &quot;Open Sans&quot;, sans-serif; font-size: 14px; font-weight: normal; fill: black;">*</text><text
         x="20.2177734375" y="316"
         style="font-family: &quot;Open Sans&quot;, sans-serif; font-size: 14px; font-weight: normal; fill: black;">1</text>
   </svg><svg x="257.6708984375" y="165" width="601.54833984375" height="357.5">
      <path
         d="M8,331.5L288.274169921875,331.5Q298.274169921875,331.5,298.274169921875,321.5L298.274169921875,36Q298.274169921875,26,308.274169921875,26L588.54833984375,26L308.274169921875,26Q298.274169921875,26,298.274169921875,36L298.274169921875,321.5Q298.274169921875,331.5,288.274169921875,331.5L8,331.5L8,331.5M18,327.5L18,335.5M588.54833984375,22L578.54833984375,26L588.54833984375,30"
         fill="none" stroke="#619BCC" stroke-width="2"></path><text x="11" y="328.5"
         style="font-family: &quot;Open Sans&quot;, sans-serif; font-size: 14px; font-weight: normal; fill: black;">1</text><text
         x="577.83740234375" y="23"
         style="font-family: &quot;Open Sans&quot;, sans-serif; font-size: 14px; font-weight: normal; fill: black;">*</text>
   </svg><svg x="257.6708984375" y="132" width="601.54833984375" height="423.5">
      <path
         d="M8,397.5L288.274169921875,397.5Q298.274169921875,397.5,298.274169921875,387.5L298.274169921875,36Q298.274169921875,26,308.274169921875,26L588.54833984375,26L308.274169921875,26Q298.274169921875,26,298.274169921875,36L298.274169921875,387.5Q298.274169921875,397.5,288.274169921875,397.5L8,397.5L8,397.5M18,393.5L18,401.5M588.54833984375,22L578.54833984375,26L588.54833984375,30"
         fill="none" stroke="#619BCC" stroke-width="2"></path><text x="11" y="394.5"
         style="font-family: &quot;Open Sans&quot;, sans-serif; font-size: 14px; font-weight: normal; fill: black;">1</text><text
         x="577.83740234375" y="23"
         style="font-family: &quot;Open Sans&quot;, sans-serif; font-size: 14px; font-weight: normal; fill: black;">*</text>
   </svg><svg x="68" y="29">
      <rect x="0" y="0" width="132.8798828125" height="33" fill="#316896"></rect><text x="10" y="19.75"
         style="font-family: &quot;Open Sans&quot;, sans-serif; font-size: 13px; font-weight: bold; fill: rgb(255, 255, 255);">auth.user</text>
   </svg><svg x="68" y="62">
      <rect x="0" y="0" width="132.8798828125" height="33" fill="#DEECF3"></rect><text x="10" y="19.75"
         style="font-family: &quot;Open Sans&quot;, sans-serif; font-size: 13px; font-weight: bold; fill: black;">id</text><text
         x="91.87158203125" y="19.75"
         style="font-family: &quot;Open Sans&quot;, sans-serif; font-size: 13px; font-weight: bold; fill: black;">TEXT</text>
   </svg><svg x="262.6708984375" y="79">
      <rect x="0" y="0" width="213.95849609375" height="33" fill="#316896"></rect><text x="10" y="19.75"
         style="font-family: &quot;Open Sans&quot;, sans-serif; font-size: 13px; font-weight: bold; fill: rgb(255, 255, 255);">public.profile</text>
   </svg><svg x="262.6708984375" y="112">
      <rect x="0" y="0" width="213.95849609375" height="33" fill="#DEECF3"></rect><text x="10" y="19.75"
         style="font-family: &quot;Open Sans&quot;, sans-serif; font-size: 13px; font-weight: bold; fill: black;">id</text><text
         x="172.9501953125" y="19.75"
         style="font-family: &quot;Open Sans&quot;, sans-serif; font-size: 13px; font-weight: bold; fill: black;">TEXT</text>
   </svg><svg x="262.6708984375" y="145">
      <rect x="0" y="0" width="213.95849609375" height="33" fill="#F2F2F2"></rect><text x="10" y="19.75"
         style="font-family: &quot;Open Sans&quot;, sans-serif; font-size: 13px; fill: rgb(111, 111, 111);">first_name</text><text
         x="174.9052734375" y="19.75"
         style="font-family: &quot;Open Sans&quot;, sans-serif; font-size: 13px; fill: rgb(111, 111, 111);">TEXT</text>
   </svg><svg x="262.6708984375" y="178">
      <rect x="0" y="0" width="213.95849609375" height="33" fill="#F2F2F2"></rect><text x="10" y="19.75"
         style="font-family: &quot;Open Sans&quot;, sans-serif; font-size: 13px; fill: rgb(111, 111, 111);">last_name</text><text
         x="174.9052734375" y="19.75"
         style="font-family: &quot;Open Sans&quot;, sans-serif; font-size: 13px; fill: rgb(111, 111, 111);">TEXT</text>
   </svg><svg x="262.6708984375" y="211">
      <rect x="0" y="0" width="213.95849609375" height="33" fill="#F2F2F2"></rect><text x="10" y="19.75"
         style="font-family: &quot;Open Sans&quot;, sans-serif; font-size: 13px; fill: rgb(111, 111, 111);">created_at</text><text
         x="132.22998046875" y="19.75"
         style="font-family: &quot;Open Sans&quot;, sans-serif; font-size: 13px; fill: rgb(111, 111, 111);">TIMESTAMP</text>
   </svg><svg x="597.62939453125" y="0">
      <rect x="0" y="0" width="241.58984375" height="33" fill="#316896"></rect><text x="10" y="19.75"
         style="font-family: &quot;Open Sans&quot;, sans-serif; font-size: 13px; font-weight: bold; fill: rgb(255, 255, 255);">public.public_profile_mask</text>
   </svg><svg x="597.62939453125" y="33">
      <rect x="0" y="0" width="241.58984375" height="33" fill="#DEECF3"></rect><text x="10" y="19.75"
         style="font-family: &quot;Open Sans&quot;, sans-serif; font-size: 13px; font-weight: bold; fill: black;">profile_id</text><text
         x="200.58154296875" y="19.75"
         style="font-family: &quot;Open Sans&quot;, sans-serif; font-size: 13px; font-weight: bold; fill: black;">TEXT</text>
   </svg><svg x="597.62939453125" y="66">
      <rect x="0" y="0" width="241.58984375" height="33" fill="#F2F2F2"></rect><text x="10" y="19.75"
         style="font-family: &quot;Open Sans&quot;, sans-serif; font-size: 13px; fill: rgb(111, 111, 111);">name</text><text
         x="170.95068359375" y="19.75"
         style="font-family: &quot;Open Sans&quot;, sans-serif; font-size: 13px; fill: rgb(111, 111, 111);">BOOLEAN</text>
   </svg><svg x="846.21923828125" y="117">
      <rect x="0" y="0" width="228.68505859375" height="33" fill="#316896"></rect><text x="10" y="19.75"
         style="font-family: &quot;Open Sans&quot;, sans-serif; font-size: 13px; font-weight: bold; fill: rgb(255, 255, 255);">public.page</text>
   </svg><svg x="846.21923828125" y="150">
      <rect x="0" y="0" width="228.68505859375" height="33" fill="#DEECF3"></rect><text x="10" y="19.75"
         style="font-family: &quot;Open Sans&quot;, sans-serif; font-size: 13px; fill: rgb(111, 111, 111);">primary_profile_id</text><text
         x="189.6318359375" y="19.75"
         style="font-family: &quot;Open Sans&quot;, sans-serif; font-size: 13px; fill: rgb(111, 111, 111);">TEXT</text>
   </svg><svg x="846.21923828125" y="183">
      <rect x="0" y="0" width="228.68505859375" height="33" fill="#DEECF3"></rect><text x="10" y="19.75"
         style="font-family: &quot;Open Sans&quot;, sans-serif; font-size: 13px; fill: rgb(111, 111, 111);">handle</text><text
         x="189.6318359375" y="19.75"
         style="font-family: &quot;Open Sans&quot;, sans-serif; font-size: 13px; fill: rgb(111, 111, 111);">TEXT</text>
   </svg><svg x="846.21923828125" y="216">
      <rect x="0" y="0" width="228.68505859375" height="33" fill="#F2F2F2"></rect><text x="10" y="19.75"
         style="font-family: &quot;Open Sans&quot;, sans-serif; font-size: 13px; fill: rgb(111, 111, 111);">title</text><text
         x="189.6318359375" y="19.75"
         style="font-family: &quot;Open Sans&quot;, sans-serif; font-size: 13px; fill: rgb(111, 111, 111);">TEXT</text>
   </svg><svg x="846.21923828125" y="249">
      <rect x="0" y="0" width="228.68505859375" height="33" fill="#F2F2F2"></rect><text x="10" y="19.75"
         style="font-family: &quot;Open Sans&quot;, sans-serif; font-size: 13px; fill: rgb(111, 111, 111);">created_at</text><text
         x="146.95654296875" y="19.75"
         style="font-family: &quot;Open Sans&quot;, sans-serif; font-size: 13px; fill: rgb(111, 111, 111);">TIMESTAMP</text>
   </svg><svg x="846.21923828125" y="282">
      <rect x="0" y="0" width="228.68505859375" height="33" fill="#F2F2F2"></rect><text x="10" y="19.75"
         style="font-family: &quot;Open Sans&quot;, sans-serif; font-size: 13px; fill: rgb(111, 111, 111);">details</text><text
         x="189.6318359375" y="19.75"
         style="font-family: &quot;Open Sans&quot;, sans-serif; font-size: 13px; fill: rgb(111, 111, 111);">TEXT</text>
   </svg><svg x="846.21923828125" y="315">
      <rect x="0" y="0" width="228.68505859375" height="33" fill="#F2F2F2"></rect><text x="10" y="19.75"
         style="font-family: &quot;Open Sans&quot;, sans-serif; font-size: 13px; fill: rgb(111, 111, 111);">allow_external</text><text
         x="158.0458984375" y="19.75"
         style="font-family: &quot;Open Sans&quot;, sans-serif; font-size: 13px; fill: rgb(111, 111, 111);">BOOLEAN</text>
   </svg><svg x="0" y="240">
      <rect x="0" y="0" width="221.2392578125" height="33" fill="#316896"></rect><text x="10" y="19.75"
         style="font-family: &quot;Open Sans&quot;, sans-serif; font-size: 13px; font-weight: bold; fill: rgb(255, 255, 255);">public.moderators</text>
   </svg><svg x="0" y="273">
      <rect x="0" y="0" width="221.2392578125" height="33" fill="#DEECF3"></rect><text x="10" y="19.75"
         style="font-family: &quot;Open Sans&quot;, sans-serif; font-size: 13px; fill: rgb(111, 111, 111);">moderator_handle</text><text
         x="182.18603515625" y="19.75"
         style="font-family: &quot;Open Sans&quot;, sans-serif; font-size: 13px; fill: rgb(111, 111, 111);">TEXT</text>
   </svg><svg x="0" y="306">
      <rect x="0" y="0" width="221.2392578125" height="33" fill="#DEECF3"></rect><text x="10" y="19.75"
         style="font-family: &quot;Open Sans&quot;, sans-serif; font-size: 13px; fill: rgb(111, 111, 111);">page_handle</text><text
         x="182.18603515625" y="19.75"
         style="font-family: &quot;Open Sans&quot;, sans-serif; font-size: 13px; fill: rgb(111, 111, 111);">TEXT</text>
   </svg><svg x="0" y="339">
      <rect x="0" y="0" width="221.2392578125" height="33" fill="#F2F2F2"></rect><text x="10" y="19.75"
         style="font-family: &quot;Open Sans&quot;, sans-serif; font-size: 13px; fill: rgb(111, 111, 111);">role</text><text
         x="182.18603515625" y="19.75"
         style="font-family: &quot;Open Sans&quot;, sans-serif; font-size: 13px; fill: rgb(111, 111, 111);">TEXT</text>
   </svg><svg x="591.6708984375" y="259">
      <rect x="0" y="0" width="152.65283203125" height="33" fill="#316896"></rect><text x="10" y="19.75"
         style="font-family: &quot;Open Sans&quot;, sans-serif; font-size: 13px; font-weight: bold; fill: rgb(255, 255, 255);">public.badge</text>
   </svg><svg x="591.6708984375" y="292">
      <rect x="0" y="0" width="152.65283203125" height="33" fill="#DEECF3"></rect><text x="10" y="19.75"
         style="font-family: &quot;Open Sans&quot;, sans-serif; font-size: 13px; fill: rgb(111, 111, 111);">handle</text><text
         x="113.599609375" y="19.75"
         style="font-family: &quot;Open Sans&quot;, sans-serif; font-size: 13px; fill: rgb(111, 111, 111);">TEXT</text>
   </svg><svg x="591.6708984375" y="325">
      <rect x="0" y="0" width="152.65283203125" height="33" fill="#F2F2F2"></rect><text x="10" y="19.75"
         style="font-family: &quot;Open Sans&quot;, sans-serif; font-size: 13px; fill: rgb(111, 111, 111);">name</text><text
         x="113.599609375" y="19.75"
         style="font-family: &quot;Open Sans&quot;, sans-serif; font-size: 13px; fill: rgb(111, 111, 111);">TEXT</text>
   </svg><svg x="578.62939453125" y="410">
      <rect x="0" y="0" width="208.57568359375" height="33" fill="#316896"></rect><text x="10" y="19.75"
         style="font-family: &quot;Open Sans&quot;, sans-serif; font-size: 13px; font-weight: bold; fill: rgb(255, 255, 255);">public.post</text>
   </svg><svg x="578.62939453125" y="443">
      <rect x="0" y="0" width="208.57568359375" height="33" fill="#DEECF3"></rect><text x="10" y="19.75"
         style="font-family: &quot;Open Sans&quot;, sans-serif; font-size: 13px; fill: rgb(111, 111, 111);">id</text><text
         x="140.564453125" y="19.75"
         style="font-family: &quot;Open Sans&quot;, sans-serif; font-size: 13px; fill: rgb(111, 111, 111);">VARCHAR</text>
   </svg><svg x="578.62939453125" y="476">
      <rect x="0" y="0" width="208.57568359375" height="33" fill="#DEECF3"></rect><text x="10" y="19.75"
         style="font-family: &quot;Open Sans&quot;, sans-serif; font-size: 13px; fill: rgb(111, 111, 111);">handle</text><text
         x="169.5224609375" y="19.75"
         style="font-family: &quot;Open Sans&quot;, sans-serif; font-size: 13px; fill: rgb(111, 111, 111);">TEXT</text>
   </svg><svg x="578.62939453125" y="509">
      <rect x="0" y="0" width="208.57568359375" height="33" fill="#DEECF3"></rect><text x="10" y="19.75"
         style="font-family: &quot;Open Sans&quot;, sans-serif; font-size: 13px; fill: rgb(111, 111, 111);">poster_handle</text><text
         x="169.5224609375" y="19.75"
         style="font-family: &quot;Open Sans&quot;, sans-serif; font-size: 13px; fill: rgb(111, 111, 111);">TEXT</text>
   </svg><svg x="578.62939453125" y="542">
      <rect x="0" y="0" width="208.57568359375" height="33" fill="#F2F2F2"></rect><text x="10" y="19.75"
         style="font-family: &quot;Open Sans&quot;, sans-serif; font-size: 13px; fill: rgb(111, 111, 111);">posted_at</text><text
         x="126.84716796875" y="19.75"
         style="font-family: &quot;Open Sans&quot;, sans-serif; font-size: 13px; fill: rgb(111, 111, 111);">TIMESTAMP</text>
   </svg><svg x="578.62939453125" y="575">
      <rect x="0" y="0" width="208.57568359375" height="33" fill="#F2F2F2"></rect><text x="10" y="19.75"
         style="font-family: &quot;Open Sans&quot;, sans-serif; font-size: 13px; fill: rgb(111, 111, 111);">title</text><text
         x="169.5224609375" y="19.75"
         style="font-family: &quot;Open Sans&quot;, sans-serif; font-size: 13px; fill: rgb(111, 111, 111);">TEXT</text>
   </svg><svg x="578.62939453125" y="608">
      <rect x="0" y="0" width="208.57568359375" height="33" fill="#F2F2F2"></rect><text x="10" y="19.75"
         style="font-family: &quot;Open Sans&quot;, sans-serif; font-size: 13px; fill: rgb(111, 111, 111);">body</text><text
         x="169.5224609375" y="19.75"
         style="font-family: &quot;Open Sans&quot;, sans-serif; font-size: 13px; fill: rgb(111, 111, 111);">TEXT</text>
   </svg><svg x="889.21923828125" y="410">
      <rect x="0" y="0" width="194.90283203125" height="33" fill="#316896"></rect><text x="10" y="19.75"
         style="font-family: &quot;Open Sans&quot;, sans-serif; font-size: 13px; font-weight: bold; fill: rgb(255, 255, 255);">public.post_votes</text>
   </svg><svg x="889.21923828125" y="443">
      <rect x="0" y="0" width="194.90283203125" height="33" fill="#DEECF3"></rect><text x="10" y="19.75"
         style="font-family: &quot;Open Sans&quot;, sans-serif; font-size: 13px; fill: rgb(111, 111, 111);">post_id</text><text
         x="126.8916015625" y="19.75"
         style="font-family: &quot;Open Sans&quot;, sans-serif; font-size: 13px; fill: rgb(111, 111, 111);">VARCHAR</text>
   </svg><svg x="889.21923828125" y="476">
      <rect x="0" y="0" width="194.90283203125" height="33" fill="#DEECF3"></rect><text x="10" y="19.75"
         style="font-family: &quot;Open Sans&quot;, sans-serif; font-size: 13px; fill: rgb(111, 111, 111);">handle</text><text
         x="155.849609375" y="19.75"
         style="font-family: &quot;Open Sans&quot;, sans-serif; font-size: 13px; fill: rgb(111, 111, 111);">TEXT</text>
   </svg><svg x="889.21923828125" y="509">
      <rect x="0" y="0" width="194.90283203125" height="33" fill="#F2F2F2"></rect><text x="10" y="19.75"
         style="font-family: &quot;Open Sans&quot;, sans-serif; font-size: 13px; fill: rgb(111, 111, 111);">is_upvote</text><text
         x="124.263671875" y="19.75"
         style="font-family: &quot;Open Sans&quot;, sans-serif; font-size: 13px; fill: rgb(111, 111, 111);">BOOLEAN</text>
   </svg><svg x="31" y="447">
      <rect x="0" y="0" width="234.6708984375" height="33" fill="#316896"></rect><text x="10" y="19.75"
         style="font-family: &quot;Open Sans&quot;, sans-serif; font-size: 13px; font-weight: bold; fill: rgb(255, 255, 255);">public.subscription</text>
   </svg><svg x="31" y="480">
      <rect x="0" y="0" width="234.6708984375" height="33" fill="#DEECF3"></rect><text x="10" y="19.75"
         style="font-family: &quot;Open Sans&quot;, sans-serif; font-size: 13px; fill: rgb(111, 111, 111);">handle</text><text
         x="195.61767578125" y="19.75"
         style="font-family: &quot;Open Sans&quot;, sans-serif; font-size: 13px; fill: rgb(111, 111, 111);">TEXT</text>
   </svg><svg x="31" y="513">
      <rect x="0" y="0" width="234.6708984375" height="33" fill="#DEECF3"></rect><text x="10" y="19.75"
         style="font-family: &quot;Open Sans&quot;, sans-serif; font-size: 13px; fill: rgb(111, 111, 111);">profile_id</text><text
         x="195.61767578125" y="19.75"
         style="font-family: &quot;Open Sans&quot;, sans-serif; font-size: 13px; fill: rgb(111, 111, 111);">TEXT</text>
   </svg><svg x="31" y="546">
      <rect x="0" y="0" width="234.6708984375" height="33" fill="#F2F2F2"></rect><text x="10" y="19.75"
         style="font-family: &quot;Open Sans&quot;, sans-serif; font-size: 13px; fill: rgb(111, 111, 111);">subscribed_at</text><text
         x="152.9423828125" y="19.75"
         style="font-family: &quot;Open Sans&quot;, sans-serif; font-size: 13px; fill: rgb(111, 111, 111);">TIMESTAMP</text>
   </svg></svg>