<?xml version="1.0" encoding="utf-8"?>
<svg viewBox="0.009 0 316.398 71.399" xmlns="http://www.w3.org/2000/svg">
  <svg viewBox="0 0 316.416 71.39860589812332" height="71.39860589812332" width="316.416">
    <g>
      <svg viewBox="0 0 316.416 71.39860589812332" height="71.39860589812332" width="316.416">
        <g>
          <svg viewBox="0 0 316.416 71.39860589812332" height="71.39860589812332" width="316.416">
            <g id="textblocktransform">
              <svg viewBox="0 0 316.416 71.39860589812332" height="71.39860589812332" width="316.416" id="textblock">
                <g>
                  <svg viewBox="0 0 316.416 71.39860589812332" height="71.39860589812332" width="316.416">
                    <g transform="matrix(1,0,0,1,0,0)">
                      <svg width="316.416" viewBox="3.95 -39.95 179.03000000000003 40.400000000000006" height="71.39860589812332" data-palette-color="#ffffff">
                        <path d="M30.95-37.55L30.95-8Q30.95-3.95 28.25-1.95L28.25-1.95Q26.95-1 25.58-0.48 24.2 0.05 22.9 0.05L22.9 0.05 12 0.05Q10.7 0.05 9.33-0.48 7.95-1 6.65-1.95L6.65-1.95Q5.35-2.95 4.65-4.42 3.95-5.9 3.95-8L3.95-8 3.95-37.55Q3.95-39.95 6.9-39.95L6.9-39.95Q9.9-39.95 9.9-37.55L9.9-37.55 9.9-8.4Q9.9-7.1 10.65-6.05 11.4-5 13.25-5L13.25-5 21.65-5Q23.5-5 24.25-6.05 25-7.1 25-8.4L25-8.4 25-37.55Q25-39.95 27.95-39.95L27.95-39.95Q30.95-39.95 30.95-37.55L30.95-37.55ZM61.2 0.05L41.75 0.05Q39.9 0.05 39.25-0.9 38.6-1.85 38.6-3L38.6-3 38.6-37.55Q38.6-39.95 41.5-39.95L41.5-39.95Q44.5-39.95 44.5-37.55L44.5-37.55 44.5-5 61.2-5Q63-5 63-2.55L63-2.55Q63.1 0.05 61.2 0.05L61.2 0.05ZM80.95-34.65L80.95-2Q80.95 0.4 77.95 0.4L77.95 0.4Q75 0.4 75-2L75-2 75-34.65 66.25-34.65Q64.45-34.65 64.34-37.2L64.34-37.2Q64.34-39.7 66.25-39.7L66.25-39.7 89.7-39.7Q91.59-39.7 91.5-37.2L91.5-37.2Q91.5-34.65 89.7-34.65L89.7-34.65 80.95-34.65ZM102.09-37.55L102.09-2.1Q102.09 0.3 99.09 0.3L99.09 0.3Q96.14 0.3 96.14-2.1L96.14-2.1 96.14-37.55Q96.14-39.95 99.09-39.95L99.09-39.95Q102.09-39.95 102.09-37.55L102.09-37.55ZM140.74-39.95L140.74-39.95Q142.34-39.95 144.24-39.2L144.24-39.2Q145.99-38.5 145.99-36.55L145.99-36.55 145.99-2.1Q145.99 0.3 143.04 0.3L143.04 0.3Q140.09 0.3 140.09-2.1L140.09-2.1 140.09-27.8 138.64-27.95 136.64-21.45 130.64-1.45Q130.09 0.3 127.94 0.25L127.94 0.25Q126.99 0.2 126.29-0.25 125.59-0.7 125.34-1.55L125.34-1.55 121.74-13.2Q120.64-16.65 119.54-20.23 118.44-23.8 117.14-28.15L117.14-28.15 115.69-27.95 115.69-2.1Q115.69 0.3 112.74 0.3L112.74 0.3Q109.79 0.3 109.79-2.1L109.79-2.1 109.79-36.55Q109.79-38.45 111.54-39.2L111.54-39.2Q113.39-39.95 115.09-39.9L115.09-39.9Q115.84-39.9 116.64-39.7 117.44-39.5 118.14-39.13 118.84-38.75 119.39-38.18 119.94-37.6 120.24-36.85L120.24-36.85 128.09-10.1Q128.94-13.05 129.89-16.5 130.84-19.95 131.84-23.5 132.84-27.05 133.82-30.53 134.79-34 135.64-37L135.64-37Q135.94-37.7 136.49-38.25 137.04-38.8 137.74-39.18 138.44-39.55 139.22-39.75 139.99-39.95 140.74-39.95ZM177.19-1.2L166.19-34.8 155.24-1.2 155.24-1.25Q154.94-0.5 154.41-0.03 153.89 0.45 153.14 0.45L153.14 0.45Q152.74 0.45 152.36 0.38 151.99 0.3 151.59 0.2L151.59 0.2 151.64 0.2Q148.79-0.7 149.54-3L149.54-3 160.94-37.65Q161.19-38.45 161.81-39 162.44-39.55 163.29-39.65L163.29-39.65Q164.14-39.8 164.94-39.88 165.74-39.95 166.19-39.95L166.19-39.95Q166.64-39.95 167.44-39.88 168.24-39.8 169.09-39.7L169.09-39.7Q169.79-39.6 170.46-38.95 171.14-38.3 171.49-37.65L171.49-37.65Q174.29-29.05 177.16-20.33 180.04-11.6 182.84-3L182.84-3Q183.54-0.7 180.74 0.2L180.74 0.2Q180.34 0.3 180.01 0.38 179.69 0.45 179.29 0.45L179.29 0.45Q178.59 0.45 178.01-0.03 177.44-0.5 177.19-1.25L177.19-1.25 177.19-1.2ZM169.94-12L169.94-12Q169.94-10.4 168.81-9.28 167.69-8.15 166.09-8.15L166.09-8.15Q164.49-8.15 163.39-9.28 162.29-10.4 162.29-12L162.29-12Q162.29-13.6 163.39-14.73 164.49-15.85 166.09-15.85L166.09-15.85Q167.69-15.85 168.81-14.73 169.94-13.6 169.94-12Z" opacity="1" transform="matrix(1,0,0,1,0,0)" fill="#ffffff" class="wordmark-text-0" data-fill-palette-color="primary" id="text-0"/>
                      </svg>
                    </g>
                  </svg>
                </g>
              </svg>
            </g>
          </svg>
        </g>
      </svg>
    </g>
  </svg>
</svg>